<svg width="27" height="23" viewBox="0 0 27 23" fill="none" xmlns="http://www.w3.org/2000/svg">
<mask id="mask0_169_1875" style="mask-type:alpha" maskUnits="userSpaceOnUse" x="0" y="0" width="27" height="23">
<path d="M6.58301 12.6913L9.54731 20.8961C9.54731 20.8961 9.91792 21.6637 10.3148 21.6637C10.7116 21.6637 16.6142 15.5232 16.6142 15.5232L23.178 2.84521L6.68878 10.5734L6.58301 12.6913Z" fill="#C8DAEA"/>
<path d="M10.515 14.7944L9.946 20.8421C9.946 20.8421 9.70781 22.6952 11.5605 20.8421C13.4131 18.989 15.1865 17.5601 15.1865 17.5601" fill="#A9C6D8"/>
<path d="M6.6383 12.9821L0.540639 10.9954C0.540639 10.9954 -0.1881 10.6997 0.0465541 10.0293C0.0948591 9.89101 0.192301 9.77337 0.483797 9.5712C1.83488 8.62946 25.4912 0.126752 25.4912 0.126752C25.4912 0.126752 26.1591 -0.0983242 26.553 0.0513794C26.6505 0.0815465 26.7382 0.137059 26.8072 0.212238C26.8761 0.287417 26.9239 0.379563 26.9455 0.479253C26.9881 0.65533 27.0059 0.836483 26.9984 1.01748C26.9965 1.17405 26.9776 1.31918 26.9632 1.54675C26.8191 3.87142 22.5075 21.2212 22.5075 21.2212C22.5075 21.2212 22.2495 22.2365 21.3253 22.2712C21.0982 22.2786 20.8719 22.2401 20.6599 22.1581C20.448 22.0761 20.2547 21.9523 20.0916 21.794C18.2779 20.2339 12.0091 16.0209 10.6239 15.0944C10.5926 15.0731 10.5663 15.0454 10.5467 15.013C10.5271 14.9807 10.5146 14.9446 10.5102 14.907C10.4908 14.8094 10.597 14.6884 10.597 14.6884C10.597 14.6884 21.5127 4.98577 21.8031 3.9672C21.8256 3.88829 21.7407 3.84936 21.6266 3.88392C20.9016 4.15064 8.33356 12.0874 6.94646 12.9634C6.84661 12.9936 6.74107 13 6.6383 12.9821V12.9821Z" fill="#A48077"/>
</mask>
<g mask="url(#mask0_169_1875)">
<rect x="-2.00049" y="-1.62842" width="29.1495" height="24.9853" fill="white"/>
</g>
</svg>
