<svg width="31" height="31" viewBox="0 0 31 31" fill="none" xmlns="http://www.w3.org/2000/svg">
<g filter="url(#filter0_d_761_1151)">
<path d="M15.2328 0.47998C18.8274 0.48132 22.2058 1.87551 24.7455 4.40576C27.2836 6.93523 28.6803 10.2981 28.6791 13.8745C28.6757 21.2548 22.6443 27.2591 15.2279 27.2593C13.0758 27.2586 10.943 26.7397 9.04042 25.7563L2.52284 27.4585C2.46649 27.4732 2.40897 27.48 2.35195 27.48C2.17448 27.4799 2.00213 27.4093 1.87441 27.2808C1.70487 27.1106 1.64027 26.8644 1.70351 26.6333L3.44179 20.3101C2.35737 18.3426 1.78584 16.1193 1.78652 13.8638C1.7901 6.48362 7.82191 0.4801 15.2328 0.47998ZM15.2348 3.29639C9.37918 3.29644 4.61648 8.03703 4.61366 13.8638C4.61299 15.8608 5.17473 17.8053 6.23769 19.4888L6.49062 19.8882L5.41737 23.7876L9.43593 22.7388L9.82362 22.9683C11.4531 23.9316 13.3227 24.4402 15.2279 24.4409H15.2318C21.0833 24.4407 25.846 19.7 25.848 13.8726C25.8487 11.0489 24.7454 8.39363 22.7406 6.396C20.7358 4.39835 18.0711 3.29706 15.2348 3.29639Z" fill="#A48077"/>
</g>
<path fill-rule="evenodd" clip-rule="evenodd" d="M12.0896 8.40534C11.8507 7.87611 11.5991 7.86539 11.3711 7.85602C11.1847 7.84798 10.9721 7.84865 10.7595 7.84865C10.5469 7.84865 10.2011 7.92837 9.90847 8.24657C9.61582 8.56478 8.79102 9.33317 8.79102 10.8967C8.79102 12.4603 9.93471 13.9716 10.0942 14.1833C10.2536 14.395 12.3022 17.7064 15.5462 18.9806C18.242 20.039 18.7909 19.8287 19.3762 19.7757C19.9615 19.7228 21.2647 19.0074 21.5304 18.2651C21.7962 17.5228 21.7962 16.8871 21.7168 16.7544C21.6367 16.6218 21.4241 16.5427 21.1052 16.3833C20.7863 16.2239 19.2168 15.4555 18.9241 15.3496C18.6315 15.2438 18.4189 15.1909 18.2056 15.5091C17.993 15.8266 17.3815 16.5428 17.1951 16.7544C17.0088 16.9668 16.8224 16.9936 16.5035 16.8342C16.1847 16.6747 15.1567 16.3398 13.937 15.2572C12.9884 14.4151 12.3479 13.3747 12.1615 13.0565C11.9752 12.739 12.1414 12.5668 12.3015 12.4081C12.4448 12.2654 12.6204 12.0369 12.7805 11.8514C12.9399 11.6658 12.9931 11.5332 13.0994 11.3215C13.2057 11.1091 13.1525 10.9235 13.0725 10.7648C12.9938 10.6053 12.3735 9.03372 12.0896 8.40534Z" fill="#A48077"/>
<defs>
<filter id="filter0_d_761_1151" x="-0.000317097" y="-2.07424e-05" width="30.36" height="30.36" filterUnits="userSpaceOnUse" color-interpolation-filters="sRGB">
<feFlood flood-opacity="0" result="BackgroundImageFix"/>
<feColorMatrix in="SourceAlpha" type="matrix" values="0 0 0 0 0 0 0 0 0 0 0 0 0 0 0 0 0 0 127 0" result="hardAlpha"/>
<feOffset dy="1.2"/>
<feGaussianBlur stdDeviation="0.840002"/>
<feColorMatrix type="matrix" values="0 0 0 0 0.562353 0 0 0 0 0.609412 0 0 0 0 0.717647 0 0 0 0.24 0"/>
<feBlend mode="normal" in2="BackgroundImageFix" result="effect1_dropShadow_761_1151"/>
<feBlend mode="normal" in="SourceGraphic" in2="effect1_dropShadow_761_1151" result="shape"/>
</filter>
</defs>
</svg>
