<svg width="31" height="31" viewBox="0 0 31 31" fill="none" xmlns="http://www.w3.org/2000/svg">
<g filter="url(#filter0_d_169_1881)">
<path fill-rule="evenodd" clip-rule="evenodd" d="M15.2342 0.47998C18.8287 0.4814 22.2064 1.8756 24.746 4.40576C27.2842 6.93526 28.6818 10.298 28.6805 13.8745C28.6772 21.2549 22.6449 27.2593 15.2284 27.2593C13.0763 27.2586 10.9434 26.7398 9.04087 25.7563L2.52427 27.4585C2.4678 27.4732 2.41052 27.48 2.35337 27.48C2.17577 27.48 2.00268 27.4094 1.87486 27.2808C1.70549 27.1106 1.64075 26.8643 1.70396 26.6333L3.44322 20.3101C2.35873 18.3425 1.78727 16.1194 1.78794 13.8638C1.79153 6.48355 7.82324 0.47998 15.2342 0.47998ZM15.2362 3.29639C9.38056 3.29639 4.61791 8.037 4.61509 13.8638C4.61442 15.8608 5.17518 17.8053 6.23814 19.4888L6.49107 19.8882L5.41783 23.7876L9.43638 22.7388L9.82505 22.9683C11.4544 23.9315 13.3232 24.4402 15.2284 24.4409H15.2323C21.084 24.4409 25.8465 19.7001 25.8485 13.8726C25.8491 11.0491 24.7467 8.39361 22.742 6.396C20.7373 4.39842 18.0724 3.29717 15.2362 3.29639Z" fill="white"/>
</g>
<path fill-rule="evenodd" clip-rule="evenodd" d="M12.09 8.40534C11.8512 7.87611 11.5996 7.86539 11.3715 7.85602C11.1852 7.84798 10.9726 7.84865 10.76 7.84865C10.5474 7.84865 10.2016 7.92837 9.90896 8.24657C9.61631 8.56478 8.7915 9.33317 8.7915 10.8967C8.7915 12.4603 9.9352 13.9716 10.0946 14.1833C10.2541 14.395 12.3026 17.7064 15.5467 18.9806C18.2424 20.039 18.7914 19.8287 19.3767 19.7757C19.962 19.7228 21.2652 19.0074 21.5309 18.2651C21.7966 17.5228 21.7966 16.8871 21.7173 16.7544C21.6372 16.6218 21.4246 16.5427 21.1057 16.3833C20.7868 16.2239 19.2173 15.4555 18.9246 15.3496C18.632 15.2438 18.4194 15.1909 18.2061 15.5091C17.9935 15.8266 17.382 16.5428 17.1956 16.7544C17.0093 16.9668 16.8229 16.9936 16.504 16.8342C16.1851 16.6747 15.1572 16.3398 13.9374 15.2572C12.9889 14.4151 12.3484 13.3747 12.162 13.0565C11.9757 12.739 12.1419 12.5668 12.302 12.4081C12.4453 12.2654 12.6209 12.0369 12.781 11.8514C12.9404 11.6658 12.9936 11.5332 13.0999 11.3215C13.2062 11.1091 13.153 10.9235 13.073 10.7648C12.9942 10.6053 12.374 9.03372 12.09 8.40534Z" fill="white"/>
<defs>
<filter id="filter0_d_169_1881" x="0.000171185" y="-2.07424e-05" width="30.3605" height="30.36" filterUnits="userSpaceOnUse" color-interpolation-filters="sRGB">
<feFlood flood-opacity="0" result="BackgroundImageFix"/>
<feColorMatrix in="SourceAlpha" type="matrix" values="0 0 0 0 0 0 0 0 0 0 0 0 0 0 0 0 0 0 127 0" result="hardAlpha"/>
<feOffset dy="1.2"/>
<feGaussianBlur stdDeviation="0.840002"/>
<feColorMatrix type="matrix" values="0 0 0 0 0.562353 0 0 0 0 0.609412 0 0 0 0 0.717647 0 0 0 0.24 0"/>
<feBlend mode="normal" in2="BackgroundImageFix" result="effect1_dropShadow_169_1881"/>
<feBlend mode="normal" in="SourceGraphic" in2="effect1_dropShadow_169_1881" result="shape"/>
</filter>
</defs>
</svg>
