<svg width="31" height="31" viewBox="0 0 31 31" fill="none" xmlns="http://www.w3.org/2000/svg">
<g filter="url(#filter0_d_169_1881)">
<path fill-rule="evenodd" clip-rule="evenodd" d="M15.2337 0.47998C18.8282 0.4814 22.2059 1.8756 24.7455 4.40576C27.2837 6.93526 28.6813 10.298 28.68 13.8745C28.6767 21.2549 22.6444 27.2593 15.2279 27.2593C13.0758 27.2586 10.9429 26.7398 9.04039 25.7563L2.52378 27.4585C2.46731 27.4732 2.41003 27.48 2.35289 27.48C2.17528 27.48 2.00219 27.4094 1.87437 27.2808C1.705 27.1106 1.64026 26.8643 1.70347 26.6333L3.44273 20.3101C2.35824 18.3425 1.78678 16.1194 1.78746 13.8638C1.79104 6.48355 7.82275 0.47998 15.2337 0.47998ZM15.2357 3.29639C9.38007 3.29639 4.61743 8.037 4.6146 13.8638C4.61393 15.8608 5.17469 17.8053 6.23765 19.4888L6.49058 19.8882L5.41734 23.7876L9.43589 22.7388L9.82457 22.9683C11.4539 23.9315 13.3227 24.4402 15.2279 24.4409H15.2318C21.0835 24.4409 25.846 19.7001 25.848 13.8726C25.8486 11.0491 24.7462 8.39361 22.7416 6.396C20.7368 4.39842 18.0719 3.29717 15.2357 3.29639Z" fill="white"/>
</g>
<path fill-rule="evenodd" clip-rule="evenodd" d="M12.0896 8.40534C11.8507 7.87611 11.5991 7.86539 11.3711 7.85602C11.1847 7.84798 10.9721 7.84865 10.7595 7.84865C10.5469 7.84865 10.2011 7.92837 9.90847 8.24657C9.61582 8.56478 8.79102 9.33317 8.79102 10.8967C8.79102 12.4603 9.93471 13.9716 10.0942 14.1833C10.2536 14.395 12.3022 17.7064 15.5462 18.9806C18.242 20.039 18.7909 19.8287 19.3762 19.7757C19.9615 19.7228 21.2647 19.0074 21.5304 18.2651C21.7962 17.5228 21.7962 16.8871 21.7168 16.7544C21.6367 16.6218 21.4241 16.5427 21.1052 16.3833C20.7863 16.2239 19.2168 15.4555 18.9241 15.3496C18.6315 15.2438 18.4189 15.1909 18.2056 15.5091C17.993 15.8266 17.3815 16.5428 17.1951 16.7544C17.0088 16.9668 16.8224 16.9936 16.5035 16.8342C16.1847 16.6747 15.1567 16.3398 13.937 15.2572C12.9884 14.4151 12.3479 13.3747 12.1615 13.0565C11.9752 12.739 12.1414 12.5668 12.3015 12.4081C12.4448 12.2654 12.6204 12.0369 12.7805 11.8514C12.9399 11.6658 12.9931 11.5332 13.0994 11.3215C13.2057 11.1091 13.1525 10.9235 13.0725 10.7648C12.9938 10.6053 12.3735 9.03372 12.0896 8.40534Z" fill="white"/>
<defs>
<filter id="filter0_d_169_1881" x="-0.000317097" y="-2.07424e-05" width="30.36" height="30.36" filterUnits="userSpaceOnUse" color-interpolation-filters="sRGB">
<feFlood flood-opacity="0" result="BackgroundImageFix"/>
<feColorMatrix in="SourceAlpha" type="matrix" values="0 0 0 0 0 0 0 0 0 0 0 0 0 0 0 0 0 0 127 0" result="hardAlpha"/>
<feOffset dy="1.2"/>
<feGaussianBlur stdDeviation="0.840002"/>
<feColorMatrix type="matrix" values="0 0 0 0 0.562353 0 0 0 0 0.609412 0 0 0 0 0.717647 0 0 0 0.24 0"/>
<feBlend mode="normal" in2="BackgroundImageFix" result="effect1_dropShadow_169_1881"/>
<feBlend mode="normal" in="SourceGraphic" in2="effect1_dropShadow_169_1881" result="shape"/>
</filter>
</defs>
</svg>
